<svg width="573" height="106" viewBox="0 0 573 106" fill="none" xmlns="http://www.w3.org/2000/svg">
<path d="M14.9942 67.257L24.1575 54.8999C24.751 54.1 26.0091 54.4326 26.141 55.4225C28.937 76.3961 57.4398 83.904 70.1033 66.3172L99.11 27.1999C99.5531 26.6033 100.5 26.9148 100.5 27.6593V50.5573C100.5 51.5076 100.194 52.4342 99.6271 53.1971L83.3839 75.0631C66.3867 99.503 28.478 96.9424 14.704 70.937C14.0815 69.7596 14.2002 68.3288 14.9942 67.257Z" fill="#F8F9FB"/>
<path d="M85.6632 36.763L76.4471 49.1888C75.8537 49.9887 74.5976 49.6561 74.4636 48.6687C71.6436 27.7717 43.2938 20.2534 30.5855 37.7054L14.2793 59.6584L1.8927 76.5244C1.45221 77.1263 0.5 76.8123 0.5 76.0679V53.0297C0.5 52.0794 0.805971 51.1555 1.37044 50.3925L16.2892 30.2769C32.3949 4.40637 72.171 6.58689 85.9639 33.1016C86.5755 34.2763 86.4519 35.6992 85.6632 36.763Z" fill="#F8F9FB"/>
<path d="M131.892 86V18.8H144.468V75.344H178.26V86H131.892ZM205.764 87.728C191.652 87.728 181.764 78.32 181.764 62.768C181.764 47.408 191.748 37.616 205.764 37.616C219.876 37.616 229.86 47.408 229.86 62.768C229.86 78.32 219.876 87.728 205.764 87.728ZM205.764 78.512C213.06 78.512 217.956 72.752 217.956 62.768C217.956 52.592 212.964 46.928 205.764 46.928C198.66 46.928 193.668 52.592 193.668 62.768C193.668 72.752 198.468 78.512 205.764 78.512ZM260.42 87.728C246.308 87.728 236.42 78.32 236.42 62.768C236.42 47.408 246.404 37.616 260.42 37.616C274.532 37.616 284.516 47.408 284.516 62.768C284.516 78.32 274.532 87.728 260.42 87.728ZM260.42 78.512C267.716 78.512 272.612 72.752 272.612 62.768C272.612 52.592 267.62 46.928 260.42 46.928C253.316 46.928 248.324 52.592 248.324 62.768C248.324 72.752 253.124 78.512 260.42 78.512ZM293.861 105.584V39.152H305.573V41.264C305.573 42.704 305.477 43.952 305.189 45.872C308.165 40.88 313.156 37.616 320.549 37.616C332.933 37.616 341.093 47.984 341.093 62.864C341.093 78.032 331.973 87.728 320.069 87.728C312.197 87.728 308.165 84.368 305.189 79.568C305.477 81.488 305.573 82.736 305.573 84.08V105.584H293.861ZM317.189 78.512C324.389 78.512 329.189 72.08 329.189 62.672C329.189 53.456 324.677 46.928 317.189 46.928C310.181 46.928 305.093 52.976 305.093 62.672C305.093 72.08 310.085 78.512 317.189 78.512ZM369.016 87.728C355.768 87.728 347.608 80.816 346.84 69.872H358.744C359.032 75.44 362.488 78.992 368.728 78.992C374.008 78.992 377.368 76.496 377.368 72.944C377.368 69.776 374.68 68.336 369.688 67.376L364.024 66.224C354.232 64.304 348.664 59.696 348.664 51.92C348.664 43.76 356.344 37.616 367.864 37.616C380.44 37.616 388.312 44.144 388.6 53.936H376.888C376.504 49.328 373.144 46.352 367.864 46.352C363.544 46.352 360.184 48.08 360.184 51.44C360.184 54.224 362.008 55.664 367.96 56.816L373.624 57.968C382.84 59.792 388.888 64.016 388.888 72.272C388.888 81.2 381.112 87.728 369.016 87.728ZM419.226 87.728C404.346 87.728 395.514 78.128 395.514 62.576C395.514 46.928 406.17 37.616 419.802 37.616C433.434 37.616 440.826 45.872 441.978 56.816H430.074C429.69 51.536 426.426 46.928 419.802 46.928C412.986 46.928 407.418 52.496 407.418 62.672C407.418 71.984 412.314 78.512 419.514 78.512C426.618 78.512 429.978 73.712 430.554 68.144H442.458C440.826 80.048 433.146 87.728 419.226 87.728ZM464.711 87.728C456.551 87.728 448.583 82.352 448.583 73.136C448.583 62.576 456.743 58.928 466.823 57.584L473.543 56.72C477.383 56.24 478.727 54.8 478.727 52.496C478.727 49.232 476.039 46.352 471.047 46.352C465.575 46.352 462.119 49.424 461.639 54.32H449.543C450.311 44.528 458.279 37.616 470.375 37.616C484.679 37.616 490.439 45.296 490.439 58.448V86H479.591V84.08C479.591 82.544 479.783 81.104 480.071 79.568C477.575 84.176 472.775 87.728 464.711 87.728ZM467.879 79.088C474.119 79.088 479.111 74.48 479.111 67.856V62.768C478.055 63.728 476.423 64.208 473.543 64.784L469.703 65.552C464.231 66.608 460.487 68.432 460.487 72.656C460.487 76.784 463.751 79.088 467.879 79.088ZM501.892 86V18.8H513.604V86H501.892ZM546.824 87.728C532.808 87.728 522.92 78.704 522.92 62.48C522.92 47.696 532.808 37.616 546.44 37.616C560.744 37.616 569 47.6 569 62.864V65.456H534.92C535.016 72.848 539.72 78.512 546.824 78.512C551.912 78.512 556.04 75.632 556.808 70.736H568.712C567.752 80.336 559.496 87.728 546.824 87.728ZM557 57.008C556.808 50.672 552.68 46.352 546.344 46.352C540.008 46.352 535.496 50.864 534.824 57.008H557Z" fill="#F8F9FB"/>
</svg>
